<svg width="168" height="168" viewBox="0 0 168 168" fill="none" xmlns="http://www.w3.org/2000/svg">
<rect x="83" y="1" width="13.9167" height="13.9167" fill="#C27958"/>
<rect x="83" y="84.5" width="13.9167" height="13.9167" fill="#C27958"/>
<rect x="83" y="154.083" width="13.9167" height="13.9167" fill="#C27958"/>
<rect width="13.9167" height="13.9167" transform="matrix(-1 0 0 1 83 154.083)" fill="#592637"/>
<rect x="96.9167" y="140.167" width="13.9167" height="13.9167" fill="#C27958"/>
<rect x="110.917" y="140.167" width="13.9167" height="13.9167" fill="#C27958"/>
<rect width="13.9167" height="13.9167" transform="matrix(-1 0 0 1 69.0833 140.167)" fill="#592637"/>
<rect width="13.9167" height="13.9167" transform="matrix(-1 0 0 1 57.75 140.167)" fill="#592637"/>
<rect width="13.9167" height="13.9167" transform="matrix(-1 0 0 1 55.1667 126.25)" fill="#592637"/>
<rect x="110.833" y="126.25" width="13.9167" height="13.9167" fill="#C27958"/>
<rect x="124.833" y="126.25" width="13.9167" height="13.9167" fill="#C27958"/>
<rect width="13.9167" height="13.9167" transform="matrix(-1 0 0 1 41.25 112.333)" fill="#592637"/>
<rect width="13.9167" height="13.9167" transform="matrix(-1 0 0 1 43.8334 126.25)" fill="#592637"/>
<rect x="124.75" y="112.333" width="13.9167" height="13.9167" fill="#C27958"/>
<rect x="138.75" y="112.333" width="13.9167" height="13.9167" fill="#C27958"/>
<rect width="13.9167" height="13.9167" transform="matrix(-1 0 0 1 29.9167 112.333)" fill="#592637"/>
<rect x="69.0833" y="1" width="13.9167" height="13.9167" fill="#592637"/>
<rect x="124.75" y="56.6667" width="13.9167" height="13.9167" fill="#E6B483"/>
<rect x="138.75" y="56.6667" width="13.9167" height="13.9167" fill="#E6B483"/>
<rect x="83" y="140.167" width="13.9167" height="13.9167" fill="#E6B483"/>
<rect x="55.1667" y="14.9167" width="27.8333" height="13.9167" fill="#592637"/>
<rect x="69.0833" y="84.5" width="13.9167" height="13.9167" fill="#592637"/>
<rect x="83" y="14.9167" width="27.8333" height="13.9167" fill="#C27958"/>
<rect x="97" y="14.9167" width="27.8333" height="13.9167" fill="#C27958"/>
<rect x="55.1667" y="70.5833" width="27.8333" height="13.9167" fill="#592637"/>
<rect x="83" y="70.5833" width="27.8333" height="13.9167" fill="#C27958"/>
<rect x="97" y="70.5833" width="27.8333" height="13.9167" fill="#C27958"/>
<rect x="43.8334" y="14.9167" width="27.8333" height="13.9167" fill="#592637"/>
<rect x="41.25" y="28.8333" width="41.75" height="13.9167" fill="#592637"/>
<rect x="110.833" y="70.5833" width="27.8333" height="13.9167" fill="#E6B483"/>
<rect x="124.833" y="70.5833" width="27.8333" height="13.9167" fill="#E6B483"/>
<rect x="83" y="126.25" width="27.8333" height="13.9167" fill="#E6B483"/>
<rect x="97" y="126.25" width="27.8333" height="13.9167" fill="#E6B483"/>
<rect x="41.25" y="56.6667" width="41.75" height="13.9167" fill="#592637"/>
<rect x="43.8334" y="70.5833" width="27.8333" height="13.9167" fill="#592637"/>
<rect x="27.3333" y="42.75" width="55.6667" height="13.9167" fill="#592637"/>
<rect x="83" y="28.8333" width="41.75" height="13.9167" fill="#C27958"/>
<rect x="97" y="28.8333" width="41.75" height="13.9167" fill="#C27958"/>
<rect x="83" y="56.6667" width="41.75" height="13.9167" fill="#C27958"/>
<rect x="97" y="56.6667" width="41.75" height="13.9167" fill="#C27958"/>
<rect x="29.9167" y="28.8333" width="41.75" height="13.9167" fill="#592637"/>
<rect x="96.9167" y="84.5" width="41.75" height="13.9167" fill="#E6B483"/>
<rect x="110.917" y="84.5" width="41.75" height="13.9167" fill="#E6B483"/>
<rect x="83" y="112.333" width="41.75" height="13.9167" fill="#E6B483"/>
<rect x="97" y="112.333" width="41.75" height="13.9167" fill="#E6B483"/>
<rect x="29.9167" y="56.6667" width="41.75" height="13.9167" fill="#592637"/>
<rect x="83" y="42.75" width="55.6667" height="13.9167" fill="#C27958"/>
<rect x="97" y="42.75" width="55.6667" height="13.9167" fill="#C27958"/>
<rect x="16" y="42.75" width="55.6667" height="13.9167" fill="#592637"/>
<rect x="83" y="98.4167" width="55.6667" height="13.9167" fill="#E6B483"/>
<rect x="97" y="98.4167" width="55.6667" height="13.9167" fill="#E6B483"/>
<rect width="13.9167" height="13.9167" transform="matrix(-1 0 0 1 41.25 56.6667)" fill="#C17857"/>
<rect width="13.9167" height="13.9167" transform="matrix(-1 0 0 1 29.9167 56.6667)" fill="#C17857"/>
<rect width="27.8333" height="13.9167" transform="matrix(-1 0 0 1 55.1667 70.5833)" fill="#C17857"/>
<rect width="27.8333" height="13.9167" transform="matrix(-1 0 0 1 83 126.25)" fill="#C17857"/>
<rect width="41.75" height="13.9167" transform="matrix(-1 0 0 1 69.0833 84.5)" fill="#C17857"/>
<rect width="41.75" height="13.9167" transform="matrix(-1 0 0 1 83 112.333)" fill="#C17857"/>
<rect width="55.6667" height="13.9167" transform="matrix(-1 0 0 1 83 98.4167)" fill="#C17857"/>
<rect width="13.9167" height="13.9167" transform="matrix(-1 0 0 1 83 140.167)" fill="#C17857"/>
<rect width="27.8333" height="13.9167" transform="matrix(-1 0 0 1 43.8333 70.5833)" fill="#C17857"/>
<rect width="27.8333" height="13.9167" transform="matrix(-1 0 0 1 71.6667 126.25)" fill="#C17857"/>
<rect width="41.75" height="13.9167" transform="matrix(-1 0 0 1 57.75 84.5)" fill="#C17857"/>
<rect width="41.75" height="13.9167" transform="matrix(-1 0 0 1 71.6667 112.333)" fill="#C17857"/>
<rect width="55.6667" height="13.9167" transform="matrix(-1 0 0 1 71.6667 98.4167)" fill="#C17857"/>
</svg>
