<svg width="168" height="168" viewBox="0 0 168 168" fill="none" xmlns="http://www.w3.org/2000/svg">
<rect x="78" y="72" width="12" height="12" fill="#015100"/>
<rect x="78" y="36" width="12" height="36" fill="#015100"/>
<rect x="114" y="36" width="12" height="24" transform="rotate(90 114 36)" fill="#015100"/>
<rect x="126" width="12" height="24" transform="rotate(90 126 0)" fill="#015100"/>
<rect x="126" y="12" width="12" height="12" transform="rotate(90 126 12)" fill="#015100"/>
<rect x="102" y="12" width="12" height="12" transform="rotate(90 102 12)" fill="#015100"/>
<rect x="114" y="24" width="12" height="12" transform="rotate(90 114 24)" fill="#015100"/>
<rect x="90" y="24" width="12" height="12" transform="rotate(90 90 24)" fill="#015100"/>
<rect x="126" y="24" width="12" height="12" transform="rotate(90 126 24)" fill="#015100"/>
<rect x="102" width="12" height="12" transform="rotate(90 102 0)" fill="#015100"/>
<rect x="90" y="12" width="12" height="12" transform="rotate(90 90 12)" fill="#015100"/>
<rect x="102" y="24" width="12" height="12" transform="rotate(90 102 24)" fill="#B3E304"/>
<rect x="114" y="12" width="12" height="12" transform="rotate(90 114 12)" fill="#B3E304"/>
<path fill-rule="evenodd" clip-rule="evenodd" d="M126 72H42V84H30V132V144H54V156H114V144H138V132V84H126V72Z" fill="url(#paint0_linear_687_786)"/>
<rect x="42" y="96" width="12" height="24" fill="white"/>
<rect x="54" y="120" width="12" height="12" fill="white"/>
<path fill-rule="evenodd" clip-rule="evenodd" d="M42 60H78V72H42V60ZM30 84V72H42V84H30ZM30 132H18V84H30V132ZM42 144H30V132H42V144ZM54 156H42V144H54V156ZM78 156V168H54V156H78ZM90 156H78V144H90V156ZM114 156V168H90V156H114ZM126 144V156H114V144H126ZM138 132H126V144H138V132ZM138 84V132H150V84H138ZM126 72H138V84H126V72ZM126 72H90V60H126V72Z" fill="url(#paint1_linear_687_786)"/>
<defs>
<linearGradient id="paint0_linear_687_786" x1="116" y1="136" x2="61" y2="88" gradientUnits="userSpaceOnUse">
<stop stop-color="#40B67A"/>
<stop offset="1" stop-color="#FF1443"/>
</linearGradient>
<linearGradient id="paint1_linear_687_786" x1="33" y1="60" x2="129" y2="160" gradientUnits="userSpaceOnUse">
<stop stop-color="#890F34"/>
<stop offset="1" stop-color="#015100"/>
</linearGradient>
</defs>
</svg>
