<svg width="168" height="168" viewBox="0 0 168 168" fill="none" xmlns="http://www.w3.org/2000/svg">
<g clip-path="url(#clip0_684_616)">
<rect x="42" y="60" width="36" height="12" fill="#401141"/>
<rect x="54" y="156" width="24" height="12" fill="#401141"/>
<rect x="90" y="156" width="24" height="12" fill="#401141"/>
<rect x="90" y="60" width="36" height="12" fill="#401141"/>
<rect x="78" y="72" width="12" height="12" fill="#401141"/>
<rect x="78" y="36" width="12" height="36" fill="#354235"/>
<rect x="114" y="36" width="12" height="24" transform="rotate(90 114 36)" fill="#354235"/>
<rect x="126" width="12" height="24" transform="rotate(90 126 0)" fill="#354235"/>
<rect x="126" y="12" width="12" height="12" transform="rotate(90 126 12)" fill="#354235"/>
<rect x="102" y="12" width="12" height="12" transform="rotate(90 102 12)" fill="#354235"/>
<rect x="114" y="24" width="12" height="12" transform="rotate(90 114 24)" fill="#354235"/>
<rect x="90" y="24" width="12" height="12" transform="rotate(90 90 24)" fill="#354235"/>
<rect x="126" y="24" width="12" height="12" transform="rotate(90 126 24)" fill="#354235"/>
<rect x="102" width="12" height="12" transform="rotate(90 102 0)" fill="#354235"/>
<rect x="90" y="12" width="12" height="12" transform="rotate(90 90 12)" fill="#354235"/>
<rect x="102" y="24" width="12" height="12" transform="rotate(90 102 24)" fill="#9EA583"/>
<rect x="114" y="12" width="12" height="12" transform="rotate(90 114 12)" fill="#9EA583"/>
<rect x="126" y="72" width="12" height="12" fill="#401141"/>
<rect x="30" y="72" width="12" height="12" fill="#401141"/>
<path fill-rule="evenodd" clip-rule="evenodd" d="M126 72H42V84H30V132V144H54V156H114V144H138V132V84H126V72Z" fill="#5A3F5B"/>
<path d="M99.998 90.335H96.665V87.002H69.999V90.335H66.666V93.668H63.333V120.334H73.333V127.001H76.666V130.334H79.999V127.001H83.332V130.334H86.665H89.998V127.001H93.331V120.334H103.331V93.668H99.998V90.335ZM76.666 110.335V113.668H69.999V103.668H79.999V110.335H76.666ZM86.665 120.334H79.998V117.001H86.665V120.334ZM96.665 113.668H89.998V110.335H86.665V103.668H96.665V113.668Z" fill="white"/>
<path d="M123.331 90.3289V87.0039H119.998V90.3349H116.665V93.6679H109.998V97.0009H106.665V103.668H113.332V100.335H119.999V97.0019H126.666V93.6689V93.6579H126.668V93.6689H130.001V90.3359L123.331 90.3289Z" fill="white"/>
<path d="M56.666 93.668H50V87H46.666V93.668H40V97.002H46.666V100.335H50V103.668H56.666V107.001H59.999V97.002H56.666V93.668Z" fill="white"/>
<path d="M119.998 123.668V120.334H113.331V117.001H106.665V123.668H113.331V127.001H119.99L119.998 133.669H123.331V130.336H123.318V130.334H123.331V130.329H123.334V130.334H126.667L126.664 123.668H119.998Z" fill="white"/>
<path d="M53.333 120.334H46.666V123.668H40V127.001H43.333V133.655H46.666V130.334V130.331H50V127.001H53.333V123.668H59.999V117.001H53.333V120.334Z" fill="white"/>
<rect x="30" y="132" width="12" height="12" fill="#401141"/>
<rect x="42" y="144" width="12" height="12" fill="#401141"/>
<rect x="78" y="144" width="12" height="12" fill="#401141"/>
<rect x="126" y="132" width="12" height="12" fill="#401141"/>
<rect x="114" y="144" width="12" height="12" fill="#401141"/>
<rect x="18" y="84" width="12" height="48" fill="#401141"/>
<rect x="138" y="84" width="12" height="48" fill="#401141"/>
</g>
<defs>
<clipPath id="clip0_684_616">
<rect width="168" height="168" fill="white"/>
</clipPath>
</defs>
</svg>
